<?xml version="1.0" encoding="UTF-8"?>
<!DOCTYPE svg PUBLIC "-//W3C//DTD SVG 1.1//EN" "http://www.w3.org/Graphics/SVG/1.1/DTD/svg11.dtd">
<svg xmlns="http://www.w3.org/2000/svg" version="1.1" width="200px" height="200px" style="shape-rendering:geometricPrecision; text-rendering:geometricPrecision; image-rendering:optimizeQuality; fill-rule:evenodd; clip-rule:evenodd" xmlns:xlink="http://www.w3.org/1999/xlink">
<g><path style="opacity:1" fill="#19191f" d="M -0.5,-0.5 C 66.1667,-0.5 132.833,-0.5 199.5,-0.5C 199.5,66.1667 199.5,132.833 199.5,199.5C 132.833,199.5 66.1667,199.5 -0.5,199.5C -0.5,132.833 -0.5,66.1667 -0.5,-0.5 Z"/></g>
<g><path style="opacity:1" fill="#724ad3" d="M 100.5,57.5 C 106.17,66.5367 111.503,75.87 116.5,85.5C 110.167,86.8333 103.833,86.8333 97.5,85.5C 98.6257,81.3968 101.292,79.2301 105.5,79C 103.637,75.6598 101.637,72.4931 99.5,69.5C 100.43,65.6002 100.763,61.6002 100.5,57.5 Z"/></g>
<g><path style="opacity:1" fill="#6739d6" d="M 100.5,57.5 C 100.763,61.6002 100.43,65.6002 99.5,69.5C 94.9289,76.9693 90.5956,84.636 86.5,92.5C 93.3134,93.4912 100.313,93.8245 107.5,93.5C 107.5,95.5 107.5,97.5 107.5,99.5C 96.495,99.6665 85.495,99.4998 74.5,99C 82.6263,85.2484 90.6263,71.4151 98.5,57.5C 99.2565,56.2267 99.9232,56.2267 100.5,57.5 Z"/></g>
<g><path style="opacity:1" fill="#704cc4" d="M 86.5,92.5 C 98.1857,92.1678 109.852,92.5011 121.5,93.5C 122.373,95.4134 123.373,97.2467 124.5,99C 118.843,99.4994 113.176,99.6661 107.5,99.5C 107.5,97.5 107.5,95.5 107.5,93.5C 100.313,93.8245 93.3134,93.4912 86.5,92.5 Z"/></g>
<g><path style="opacity:1" fill="#bec3c9" d="M 84.5,106.5 C 86.1667,106.5 87.8333,106.5 89.5,106.5C 90.5377,110.913 91.8711,115.246 93.5,119.5C 92.8333,119.833 92.1667,120.167 91.5,120.5C 88.1667,117.833 84.8333,117.833 81.5,120.5C 80.8333,120.167 80.1667,119.833 79.5,119.5C 81.371,115.216 83.0377,110.883 84.5,106.5 Z"/></g>
<g><path style="opacity:1" fill="#cdcfd4" d="M 96.5,106.5 C 99.1194,106.232 101.619,106.565 104,107.5C 104.617,108.449 104.451,109.282 103.5,110C 102.049,109.737 100.716,109.904 99.5,110.5C 101.422,111.711 103.255,113.044 105,114.5C 105.825,116.701 105.325,118.534 103.5,120C 100.571,120.777 97.7372,120.61 95,119.5C 94.3987,118.035 94.8987,117.035 96.5,116.5C 98.198,117.681 99.8647,117.681 101.5,116.5C 99.0918,115.547 96.9251,114.213 95,112.5C 94.2516,110.16 94.7516,108.16 96.5,106.5 Z"/></g>
<g><path style="opacity:1" fill="#e9eaec" d="M 106.5,106.5 C 107.833,106.5 109.167,106.5 110.5,106.5C 109.906,114.102 111.24,114.435 114.5,107.5C 116.074,106.369 117.741,106.202 119.5,107C 114.34,111.241 114.34,115.574 119.5,120C 117.741,120.798 116.074,120.631 114.5,119.5C 111.24,112.565 109.906,112.898 110.5,120.5C 109.167,120.5 107.833,120.5 106.5,120.5C 106.5,115.833 106.5,111.167 106.5,106.5 Z"/></g>
<g><path style="opacity:1" fill="#303137" d="M 85.5,112.5 C 87.4646,112.948 87.7979,113.948 86.5,115.5C 85.6143,114.675 85.281,113.675 85.5,112.5 Z"/></g>
</svg>
